<svg id="Layer_1" data-name="Layer 1" xmlns="http://www.w3.org/2000/svg" viewBox="0 0 792 612"><defs><style>.cls-1{fill:#fff;}</style></defs><title>ACC_Logo_Full_White_RGB</title><path class="cls-1" d="M409.52,296.71l9.39-3.49-9.39-3.67v-4.86l16.09,6.48v4l-16.09,6.52Zm-88.92,31c-3.38,0-6.19-1.73-6.19-5.54v-.22c0-4.64,4-6.16,8.89-6.16h2.34v-.9c0-1.87-.83-3-2.77-3a2.58,2.58,0,0,0-2.84,2.45h-5c.36-4.18,3.67-6.23,8.13-6.23s7.78,1.94,7.78,6.62v12.6h-5.15v-2.16A6,6,0,0,1,320.6,327.71Zm5-6.66v-1.8h-2.09c-2.59,0-3.92.72-3.92,2.41v.18c0,1.3.79,2.2,2.56,2.2S325.64,323,325.64,321Zm17.17,6.66c-5.22,0-9-3.24-9-9.61v-.25c0-6.37,4-9.75,9-9.75,4.28,0,7.81,2.16,8.24,7.09h-5c-.32-1.83-1.26-3-3.1-3-2.23,0-3.78,1.76-3.78,5.47v.58c0,3.82,1.37,5.54,3.82,5.54,1.8,0,3.13-1.33,3.42-3.38h4.79C350.84,324.65,347.92,327.71,342.81,327.71Zm19.58,0c-5.22,0-9-3.24-9-9.61v-.25c0-6.37,4-9.75,9-9.75,4.28,0,7.81,2.16,8.24,7.09h-5c-.32-1.83-1.26-3-3.1-3-2.23,0-3.78,1.76-3.78,5.47v.58c0,3.82,1.37,5.54,3.82,5.54,1.8,0,3.13-1.33,3.42-3.38h4.79C370.42,324.65,367.51,327.71,362.39,327.71Zm19.73,0c-5.44,0-9.14-3.24-9.14-9.5v-.36c0-6.3,3.92-9.75,9-9.75,4.68,0,8.6,2.63,8.6,8.85v2.27H378.31c.22,3.38,1.66,4.68,3.92,4.68a3.25,3.25,0,0,0,3.46-2.45h4.86C390,325,387.05,327.71,382.12,327.71Zm-3.74-12h7.06c-.11-2.77-1.37-4-3.46-4C380.32,311.76,378.81,312.66,378.38,315.72Zm15.41-7.23H399v2.81a6.13,6.13,0,0,1,5.69-3.2c3.42,0,5.69,2.05,5.69,6.62v12.6h-5.26V315.5c0-2.2-.9-3.17-2.81-3.17a3.15,3.15,0,0,0-3.31,3.49v11.48h-5.25Zm26.46-5.69v5.69h3.6v3.92h-3.6v8.93c0,1.4.65,2.05,1.87,2.05a4.53,4.53,0,0,0,1.83-.32v4.1a10.74,10.74,0,0,1-3,.4c-4.1,0-6-1.87-6-5.69v-9.47h-2.2v-3.92H415V305Zm23.4,24.51h-5.26v-2.77a5.74,5.74,0,0,1-5.47,3.17c-3.38,0-5.87-2.05-5.87-6.48V308.48h5.29v12c0,2.16.86,3.17,2.74,3.17a3.17,3.17,0,0,0,3.31-3.49V308.48h5.26Zm3.82-18.83h5.25v3.46a5.62,5.62,0,0,1,5.65-3.71v5.18c-3.56,0-5.65,1.08-5.65,4.21v9.68h-5.25Zm21.71,19.22c-5.44,0-9.14-3.24-9.14-9.5v-.36c0-6.3,3.92-9.75,9-9.75,4.68,0,8.6,2.63,8.6,8.85v2.27H465.35c.22,3.38,1.66,4.68,3.92,4.68a3.25,3.25,0,0,0,3.46-2.45h4.86C477,325,474.1,327.71,469.17,327.71Zm-3.74-12h7.06c-.11-2.77-1.37-4-3.46-4C467.37,311.76,465.86,312.66,465.43,315.72Z"/></svg>