<svg xmlns="http://www.w3.org/2000/svg" viewBox="0 0 121.93 30.66"><defs><style>.cls-1{fill:#f59f3a;}.cls-2{fill:#e73161;}.cls-3{fill:#4d9bae;}</style></defs><title>Asset 11</title><g id="Layer_2" data-name="Layer 2"><g id="Layer_1-2" data-name="Layer 1"><path class="cls-1" d="M106.6,0h0a15.33,15.33,0,0,1,15.33,15.33h0A15.33,15.33,0,0,1,106.6,30.66h0A15.33,15.33,0,0,1,91.27,15.33h0A15.33,15.33,0,0,1,106.6,0Z"/><path class="cls-2" d="M61,0h0A15.33,15.33,0,0,1,76.3,15.33h0A15.34,15.34,0,0,1,61,30.66h0A15.34,15.34,0,0,1,45.63,15.33h0A15.33,15.33,0,0,1,61,0Z"/><path class="cls-3" d="M15.33,0h0A15.33,15.33,0,0,1,30.66,15.33h0A15.33,15.33,0,0,1,15.33,30.66h0A15.33,15.33,0,0,1,0,15.33H0A15.33,15.33,0,0,1,15.33,0Z"/></g></g></svg>