<svg xmlns="http://www.w3.org/2000/svg" viewBox="0 0 128.15 35.13"><defs><style>.cls-1{fill:#1d1d1b;}</style></defs><title>Asset 2</title><g id="Layer_2" data-name="Layer 2"><g id="Layer_1-2" data-name="Layer 1"><path class="cls-1" d="M0,28.72H5.41v5.94H0Z"/><path class="cls-1" d="M23.74,16.53h-.1L20.09,34.66H12.61L6.15,7.58h7l3.4,20.08h.1L20.51,7.58h6.41l3.82,20.19h.1L34.29,7.58h7L34.82,34.66H27.29Z"/><path class="cls-1" d="M63.7,25.54c0,5.3-3.49,9.59-10.38,9.59S43,30.9,43,25.54V16.8c0-5.3,3.45-9.7,10.34-9.7S63.7,11.34,63.7,16.8Zm-13.93-.26c0,3.18,1.21,4.61,3.55,4.61s3.6-1.43,3.6-4.61V17.06c0-3.18-1.11-4.66-3.6-4.66s-3.55,1.48-3.55,4.66Z"/><path class="cls-1" d="M82,14.25a4.18,4.18,0,0,0-2.33-.63c-2.92,0-4.45,1.91-5,5.93V34.66H67.89V7.58h5.88l.27,4h.11c1.43-3.28,3.33-4.4,5.77-4.4a5.1,5.1,0,0,1,2.7.69Z"/><path class="cls-1" d="M92.8,0V20.08h.11l7.89-12.5H108l-7.9,11.76,8.48,15.32h-7.47L95.61,23.9,92.8,27.19v7.47H86V0Z"/><path class="cls-1" d="M123.8,15.21a4,4,0,0,0-4.13-3.13c-1.91,0-2.75.9-2.75,2.44,0,4.4,11.23,3.5,11.23,12.4,0,4.72-3.66,8.21-8.9,8.21-4.4,0-7.42-1.9-9.12-6.3l4.35-2.12A5,5,0,0,0,119,30.26c1.85,0,2.7-.9,2.7-2.76,0-4.77-11.29-3.65-11.29-12.45,0-4.5,3.18-8,9-8,4.24,0,7.1,2.17,8.58,6.36Z"/></g></g></svg>